# xmcd
#
# Track frame offsets: 
#        150
#        20430
#        37295
#        60422
#        81112
#        98102
#        111405
#        129440
#        147025
#        159330
#        180975
#        196532
#
# Disc length: 2844 seconds
#
# Revision: 1
# Processed by: cddbd v1.5.2PL0 Copyright (c) Steve Scherf et al.
# Submitted via: ExactAudioCopy v0.99pb4
#
DISCID=920b1a0c
DTITLE=Владимир Асмолов - Тысяча лет одиночества
DYEAR=1996
DGENRE=Chanson
TTITLE0=Женщина-осень
TTITLE1=Мадам
TTITLE2=Тысяча лет одиночества
TTITLE3=Было всё не так
TTITLE4=Я вернусь
TTITLE5=Ушёл твой поезд
TTITLE6=Лена
TTITLE7=Литовская девушка
TTITLE8=Неоткрытый остров
TTITLE9=Твой жених
TTITLE10=Гитара
TTITLE11=Я пришёл рассказать
EXTD=Альбом ресторанной музыки № 03\n1996 GALA [GLCD1099612-54]
EXTT0=
EXTT1=
EXTT2=
EXTT3=
EXTT4=
EXTT5=
EXTT6=
EXTT7=
EXTT8=
EXTT9=
EXTT10=
EXTT11=
PLAYORDER=
